# xmcd
#
# Track frame offsets:
#	150
#	8093
#	21575
#	41204
#	64633
#	85150
#	109928
#	132865
#	161254
#	185237
#	198072
#	221309
#
# Disc length: 3315 seconds
#
# Revision: 1
# Processed by: cddbd v1.5.2PL0 Copyright (c) Steve Scherf et al.
# Submitted via: audiograbber 1.83.01
#
DISCID=9f0cf10c
DTITLE=Beth Hart and Joe Bonamassa - Live In Amsterdam [CD1]
DYEAR=2014
DGENRE=Blues
TTITLE0=Amsterdam, Amsterdam!
TTITLE1=Them There Eyes
TTITLE2=Sinner's Prayer
TTITLE3=Can't Let Go
TTITLE4=For My Friends
TTITLE5=Close To My Fire
TTITLE6=Rhymes
TTITLE7=Something's Got a Hold on Me
TTITLE8=Your Heart is as Black as Night
TTITLE9=Chocolate Jesus
TTITLE10=Baddest Blues
TTITLE11=Someday After Awhile (You'll Be Sorry)
EXTD=
EXTT0=
EXTT1=
EXTT2=
EXTT3=
EXTT4=
EXTT5=
EXTT6=
EXTT7=
EXTT8=
EXTT9=
EXTT10=
EXTT11=
PLAYORDER=
